<?xml version="1.0" encoding="UTF-8"?>
<svg version="1.1" xmlns="http://www.w3.org/2000/svg" width="123" height="130">
<path d="M0 0 C3.7978819 1.21532221 5.41962442 3.13872142 8.125 6 C4.31413015 17.23107317 -0.19482805 28.10669654 -4.875 39 C-3.21210937 38.94779297 -3.21210937 38.94779297 -1.515625 38.89453125 C-0.05209852 38.86638651 1.41144439 38.83908708 2.875 38.8125 C3.60460937 38.78736328 4.33421875 38.76222656 5.0859375 38.73632812 C8.09523946 38.69529219 10.53169756 38.69361802 13.23876953 40.09155273 C15.87681575 42.76067094 16.31132749 45.19674671 17.1953125 48.828125 C17.36247772 49.49535583 17.52964294 50.16258667 17.70187378 50.85003662 C18.23229426 52.98011079 18.74156722 55.11458234 19.25 57.25 C19.59883405 58.67092385 19.94908043 60.09150176 20.30078125 61.51171875 C20.95187547 64.14160471 21.59293802 66.77311463 22.22705078 69.40722656 C22.84495937 71.8795329 23.51116847 74.34010477 24.21679688 76.78881836 C26.6619457 85.43425989 25.30916868 93.16608918 21.125 101 C15.44479828 110.68569351 6.57290663 115.56531813 -3.875 119 C-14.93634256 121.76533564 -26.82545258 119.93758864 -36.8125 114.5625 C-38.17949888 113.72902407 -39.53565088 112.87721833 -40.875 112 C-42.2053125 111.13375 -42.2053125 111.13375 -43.5625 110.25 C-50.18335743 103.80808466 -54.94538897 95.5215318 -55.18359375 86.1875 C-55.10250268 78.79715498 -53.06231259 71.92628159 -51.0625 64.875 C-50.70125218 63.55632368 -50.34121976 62.23731378 -49.98242188 60.91796875 C-48.98281798 57.26790258 -47.93753368 53.63229691 -46.875 50 C-46.60252441 49.05543945 -46.33004883 48.11087891 -46.04931641 47.13769531 C-44.24355371 41.24570247 -44.24355371 41.24570247 -40.875 39 C-38.69848633 38.68115234 -38.69848633 38.68115234 -36.20703125 38.5859375 C-34.86801758 38.52792969 -34.86801758 38.52792969 -33.50195312 38.46875 C-32.10879883 38.42234375 -32.10879883 38.42234375 -30.6875 38.375 C-29.27694336 38.31699219 -29.27694336 38.31699219 -27.83789062 38.2578125 C-25.5171229 38.16356813 -23.19636252 38.07795975 -20.875 38 C-20.43631592 36.95545654 -19.99763184 35.91091309 -19.5456543 34.8347168 C-17.91485135 30.95706369 -16.27443847 27.08353841 -14.63110352 23.21118164 C-13.92144541 21.53520817 -13.21439201 19.85812929 -12.51000977 18.17993164 C-11.49659434 15.76673169 -10.4738522 13.35767322 -9.44921875 10.94921875 C-9.13659592 10.19912033 -8.82397308 9.44902191 -8.50187683 8.67619324 C-4.78511203 0 -4.78511203 0 0 0 Z M-0.875 6 C-6.07460857 16.79312689 -10.50278029 27.85234278 -14.875 39 C-12.95700276 39.01299614 -12.95700276 39.01299614 -10.875 38 C-9.58925562 35.7621417 -8.60204111 33.7133696 -7.640625 31.33984375 C-7.35773621 30.67537735 -7.07484741 30.01091095 -6.78338623 29.3263092 C-5.88299109 27.20239651 -5.00388471 25.07039142 -4.125 22.9375 C-3.51830841 21.49616258 -2.9102517 20.05539896 -2.30078125 18.61523438 C-0.8095979 15.08328633 0.66255295 11.5439377 2.125 8 C1.135 7.34 0.145 6.68 -0.875 6 Z M-39.875 45 C-40.205 47.97 -40.535 50.94 -40.875 54 C-23.715 54 -6.555 54 11.125 54 C10.63 49.545 10.63 49.545 10.125 45 C-6.375 45 -22.875 45 -39.875 45 Z M-42.875 59 C-49.6636785 77.58207197 -49.6636785 77.58207197 -47.1875 96.4375 C-41.75833282 105.4419724 -34.8372381 110.76978205 -24.7109375 113.49609375 C-13.12557042 115.55465071 -2.53354538 114.23003431 7.375 107.875 C12.97193228 103.73238871 16.91682412 98.62452765 19.125 92 C20.66244681 79.87557767 16.78242868 71.19142894 13.125 59 C-5.355 59 -23.835 59 -42.875 59 Z " fill="#000000" transform="translate(72.875,2)"/>
<path d="M0 0 C1.32 0 2.64 0 4 0 C5.40638119 4.21914356 4.05678873 6.44639226 2.35546875 10.4296875 C-1.44879592 17.64353809 -7.37009766 21.52398231 -15 24 C-17.45318076 24.63307891 -19.44017747 24.89551745 -22 25 C-24 23 -24 23 -24.0078125 20.984375 C-23 19 -23 19 -20.3046875 18.015625 C-19.17289063 17.76296875 -18.04109375 17.5103125 -16.875 17.25 C-10.15196751 15.37020473 -6.65872318 12.92207746 -3 7 C-1.78868174 4.67794226 -0.87758135 2.47787674 0 0 Z " fill="#000000" transform="translate(82,86)"/>
</svg>
