<svg width="17" height="16" viewBox="0 0 17 16" fill="none" xmlns="http://www.w3.org/2000/svg">
<path d="M6.30205 5.00093C6.30454 5.00093 6.30752 5.00093 6.30205 5.00093V5.00093ZM4.46287 4.09323C4.46536 4.09323 4.46834 4.09323 4.46287 4.09323V4.09323ZM15.4641 5.4943C15.1324 4.70687 14.459 3.85808 13.9328 3.58709C14.363 4.41772 14.6117 5.25424 14.7047 5.87525L14.7072 5.88851C13.8423 3.76333 12.3791 2.90718 11.182 1.04268C11.1223 0.948423 11.0626 0.853676 11.003 0.75402C10.9716 0.702965 10.9458 0.65191 10.9174 0.597418C10.8686 0.502407 10.8312 0.402065 10.806 0.29845C10.806 0.288632 10.7985 0.280778 10.7881 0.278323H10.7727L10.7702 0.280778C10.7677 0.280778 10.7647 0.283232 10.7647 0.283232C10.7647 0.283232 10.7647 0.280778 10.7672 0.277832C9.06779 1.25966 8.36603 2.98032 8.1845 4.07212C7.66042 4.1031 7.14712 4.23239 6.67208 4.45307C6.62874 4.47423 6.5948 4.5104 6.57674 4.55467C6.55867 4.59893 6.55773 4.64822 6.5741 4.69313C6.58296 4.71799 6.59696 4.74076 6.61522 4.75999C6.63347 4.77922 6.65558 4.79449 6.68013 4.80483C6.70469 4.81517 6.73116 4.82036 6.75786 4.82006C6.78455 4.81976 6.81089 4.81398 6.83521 4.80309C7.24961 4.61068 7.69675 4.4963 8.15367 4.46583L8.19793 4.46043C8.2601 4.45798 8.32475 4.45503 8.38692 4.45503C8.7576 4.45268 9.12667 4.50344 9.48257 4.60574L9.54474 4.62391C9.60442 4.64158 9.66162 4.66171 9.7213 4.68282C9.76258 4.69804 9.80684 4.71374 9.84812 4.73142C9.88194 4.74369 9.91576 4.7594 9.94908 4.77216C10.0013 4.79573 10.053 4.82126 10.1047 4.84678L10.1744 4.87967C10.2261 4.90569 10.2758 4.93318 10.3251 4.96166C10.3564 4.97982 10.3872 4.99749 10.4181 5.01811C10.9712 5.35522 11.43 5.82374 11.7525 6.38089C11.3461 6.10009 10.615 5.8188 9.91377 5.94152C12.6591 7.29645 11.9211 11.9626 8.11587 11.7859C7.69575 11.7703 7.28252 11.6756 6.89837 11.507C6.85504 11.4872 6.81193 11.4669 6.76906 11.4462C5.83604 10.9705 5.06665 10.0701 4.97116 8.97833C4.97116 8.97833 5.32328 7.68231 7.49369 7.68231C7.72993 7.68231 8.40085 7.03479 8.41328 6.84825C8.40781 6.78688 7.07891 6.26553 6.56117 5.76185C6.28415 5.49332 6.15484 5.36323 6.03796 5.26553C5.9749 5.21194 5.90828 5.16257 5.83853 5.11777C5.665 4.51681 5.65796 3.8809 5.81814 3.27634C5.03283 3.62931 4.42408 4.18699 3.98144 4.67791H3.97697C3.67408 4.29941 3.69696 3.0515 3.71238 2.79083C3.70989 2.77316 3.48708 2.90325 3.45824 2.92387C3.19166 3.11287 2.9405 3.32298 2.71222 3.55567C2.45066 3.81689 2.2116 4.09916 1.99753 4.39956C1.50735 5.08554 1.15965 5.86055 0.974496 6.67986C0.923923 6.91003 0.882611 7.14209 0.850657 7.37549C0.840611 7.43402 0.831988 7.49279 0.824795 7.55173C0.803401 7.69516 0.788631 7.83947 0.780531 7.98422L0.778044 8.0073C0.773568 8.09173 0.768097 8.17372 0.762627 8.25815V8.29595C0.762627 12.4589 4.18187 15.834 8.39936 15.834C12.1757 15.834 15.3124 13.1261 15.9267 9.57184C15.9401 9.47513 15.95 9.37793 15.9605 9.28073C16.1132 7.98913 15.9451 6.6293 15.4656 5.4943H15.4641Z" fill="black"/>
</svg>
