<svg width="17" height="17" viewBox="0 0 17 17" fill="none" xmlns="http://www.w3.org/2000/svg">
<path d="M9.44405 0.50084C8.54053 0.484393 7.65704 0.708474 6.89366 1.26833C4.5628 2.76083 4.00628 6.05146 5.4503 8.7651C5.74525 5.47584 8.07676 2.76083 11.1623 2.18453C12.607 2.01458 13.658 2.18453 13.658 2.18453C12.5076 1.23201 10.9481 0.529621 9.44405 0.50084ZM5.94343 1.13334C3.71067 1.87959 1.37916 3.98197 1.67477 6.3564C1.67477 9.07004 4.30056 11.1738 6.89366 12.0557C4.85842 9.64703 3.4144 6.66272 4.69493 3.37209C5.28682 1.98101 5.94276 1.13334 5.94276 1.13334H5.94343ZM12.6337 2.67929C10.7726 2.6553 8.15083 3.60987 7.18993 5.44158C10.1127 4.25402 13.8562 4.52607 15.6285 7.74886C16.3845 9.07141 16.6795 10.1226 16.6795 10.1226C17.0412 7.54465 16.4493 4.25471 14.1518 3.03288C13.7901 2.80401 13.2543 2.68751 12.6337 2.67929ZM10.9675 5.17022C13.2983 7.57823 14.7423 11.4801 12.7398 14.4987C11.8536 15.8219 11.0649 16.6018 11.0649 16.6018H11.0662C13.5939 15.9576 16.1864 13.5496 16.1864 10.8695C16.1864 9.0721 14.382 5.84862 10.9681 5.17022H10.9675ZM1.11691 7.00192C0.230746 9.37635 1.08354 12.3607 2.82384 13.5825C5.15469 15.3806 8.34034 14.498 10.6712 12.3949C7.48621 13.0062 4.00562 12.3949 2.23396 9.44419C1.44588 8.05311 1.11624 7.00192 1.11624 7.00192H1.11691ZM12.936 9.17283C11.7862 12.4621 9.19314 14.7701 5.84467 14.94C4.30189 14.8379 3.21821 14.4987 3.21821 14.4987C4.82639 16.5339 7.74846 17.3823 10.0793 16.4668C11.6554 15.8226 12.8372 14.0574 13.0995 12.0557C13.2636 11.0381 13.0674 10.1898 12.936 9.17283Z" fill="black"/>
</svg>
