<svg width="26" height="13" viewBox="0 0 26 13" fill="none" xmlns="http://www.w3.org/2000/svg">
<path d="M12.8007 7.92962C9.95788 7.92962 7.54261 8.76329 5.96503 10.07V12.5005H19.6374V10.07C18.0598 8.76329 15.644 7.92962 12.8007 7.92962ZM25.3535 6.6823L12.7676 0.833374L0.186874 6.6823L2.284 7.65014V9.13876C1.75814 9.24853 1.75657 9.52642 1.75657 9.85681C1.75657 10.052 1.82072 10.2805 1.94272 10.4174L1.22334 11.9701H3.78954L3.07648 10.4163C3.19637 10.2795 3.29471 10.078 3.29471 9.8828C3.29471 9.55294 2.80986 9.248 2.80986 9.13823V7.89886L5.43917 9.08997V8.98443C7.01675 7.60082 9.78856 6.72261 12.8002 6.72261C15.8128 6.72261 18.5857 7.60082 20.1632 8.98443V9.08997L25.3535 6.6823Z" fill="black"/>
</svg>
