<svg width="183" height="47" viewBox="0 0 183 47" fill="none" xmlns="http://www.w3.org/2000/svg">
<g clip-path="url(#clip0_4374_2437)">
<mask id="mask0_4374_2437" style="mask-type:alpha" maskUnits="userSpaceOnUse" x="0" y="0" width="47" height="47">
<path fill-rule="evenodd" clip-rule="evenodd" d="M33.3285 46.6791C34.0688 46.9675 34.9129 46.949 35.6601 46.5895L45.3366 41.9334C46.3534 41.4441 47 40.4149 47 39.286V7.71428C47 6.58532 46.3534 5.55626 45.3366 5.06698L35.6601 0.41068C34.6796 -0.0611454 33.5319 0.0544224 32.6714 0.68008C32.5484 0.769457 32.4313 0.869247 32.3215 0.97922L13.7969 17.8795L5.72798 11.7545C4.97684 11.1844 3.92621 11.2311 3.22859 11.8657L0.640624 14.2198C-0.212699 14.996 -0.213678 16.3385 0.638511 17.116L7.63614 23.5L0.638511 29.8841C-0.213678 30.6616 -0.212699 32.0041 0.640624 32.7803L3.22859 35.1343C3.92621 35.769 4.97684 35.8157 5.72798 35.2456L13.7969 29.1206L32.3215 46.0209C32.6145 46.3141 32.9586 46.535 33.3285 46.6791ZM35.2572 12.8305L21.2012 23.5L35.2572 34.1696V12.8305Z" fill="white"/>
</mask>
<g mask="url(#mask0_4374_2437)">
<path d="M45.3363 5.07556L35.6523 0.412841C34.5314 -0.126866 33.1917 0.100794 32.3119 0.980502L0.609846 29.8854C-0.242861 30.663 -0.24188 32.0054 0.611961 32.7816L3.20149 35.1357C3.89955 35.7704 4.95083 35.817 5.7024 35.2469L43.8791 6.28518C45.1598 5.31357 46.9994 6.22706 46.9994 7.83468V7.72224C46.9994 6.59378 46.353 5.56509 45.3363 5.07556Z" fill="#0065A9"/>
<g filter="url(#filter0_d_4374_2437)">
<path d="M45.3363 41.9258L35.6523 46.5886C34.5314 47.1281 33.1917 46.9005 32.3119 46.0209L0.609846 17.1159C-0.242861 16.3385 -0.24188 14.996 0.611961 14.2197L3.20149 11.8656C3.89955 11.231 4.95083 11.1843 5.7024 11.7545L43.8791 40.7161C45.1598 41.6877 46.9994 40.7743 46.9994 39.1666V39.2791C46.9994 40.4075 46.353 41.4362 45.3363 41.9258Z" fill="#007ACC"/>
</g>
<g filter="url(#filter1_d_4374_2437)">
<path d="M35.6532 46.5893C34.532 47.1285 33.1923 46.9006 32.3125 46.0208C33.3964 47.1048 35.25 46.337 35.25 44.804V2.19585C35.25 0.662833 33.3964 -0.104909 32.3125 0.979099C33.1923 0.0993094 34.532 -0.128672 35.6532 0.410558L45.3355 5.06687C46.353 5.55614 47 6.58521 47 7.71416V39.2859C47 40.4148 46.353 41.4439 45.3355 41.9331L35.6532 46.5893Z" fill="#1F9CF0"/>
</g>
<g style="mix-blend-mode:overlay" opacity="0.25">
<path style="mix-blend-mode:overlay" opacity="0.25" fill-rule="evenodd" clip-rule="evenodd" d="M33.2995 46.6791C34.0398 46.9674 34.8839 46.949 35.631 46.5895L45.3074 41.9332C46.3244 41.4439 46.971 40.4149 46.971 39.286V7.71427C46.971 6.58531 46.3244 5.55625 45.3076 5.06698L35.631 0.410681C34.6506 -0.0611456 33.5029 0.0544222 32.6422 0.680079C32.5194 0.769456 32.4023 0.869247 32.2923 0.979219L13.7678 17.8795L5.69892 11.7545C4.9478 11.1844 3.89715 11.2311 3.19953 11.8657L0.611572 14.2198C-0.241752 14.996 -0.242731 16.3385 0.609458 17.116L7.6071 23.5L0.609458 29.8842C-0.242731 30.6617 -0.241752 32.0041 0.611572 32.7803L3.19953 35.1344C3.89715 35.7691 4.9478 35.8157 5.69892 35.2456L13.7678 29.1206L32.2923 46.0209C32.5853 46.3141 32.9296 46.535 33.2995 46.6791ZM35.2282 12.8305L21.1722 23.5L35.2282 34.1696V12.8305Z" fill="url(#paint0_linear_4374_2437)"/>
</g>
</g>
</g>
<path d="M70.2578 35L63.4023 16.4844L61.498 16.25V13.6719H69.9795V16.25L68.0605 16.543L72.25 29.126L72.5723 30.2979H72.6602L72.9678 29.1553L77.1572 16.543L74.916 16.25V13.6719H83.002V16.25L81.0684 16.4844L74.6377 35H70.2578ZM93.0215 35.3076C91.4492 35.3076 90.0186 35.1318 88.7295 34.7803C87.4404 34.4287 86.1709 33.8184 84.9209 32.9492V27.793H88.2314L88.6855 30.8252C89.125 31.1963 89.7305 31.499 90.502 31.7334C91.2734 31.958 92.1133 32.0703 93.0215 32.0703C93.793 32.0703 94.4424 31.9629 94.9697 31.748C95.5068 31.5332 95.9121 31.2305 96.1855 30.8398C96.4688 30.4395 96.6104 29.9707 96.6104 29.4336C96.6104 28.9258 96.4834 28.4766 96.2295 28.0859C95.9854 27.6855 95.5752 27.3242 94.999 27.002C94.4326 26.6699 93.6611 26.3525 92.6846 26.0498C90.9951 25.5518 89.5938 25.0098 88.4805 24.4238C87.377 23.8281 86.5469 23.1201 85.9902 22.2998C85.4434 21.4697 85.1699 20.4736 85.1699 19.3115C85.1699 18.1592 85.4873 17.1436 86.1221 16.2646C86.7666 15.376 87.6553 14.6777 88.7881 14.1699C89.9209 13.6621 91.2295 13.3984 92.7139 13.3789C94.3545 13.3594 95.8047 13.5547 97.0645 13.9648C98.334 14.375 99.4277 14.9463 100.346 15.6787V20.4834H97.1377L96.5811 17.5537C96.21 17.3193 95.707 17.1143 95.0723 16.9385C94.4473 16.7627 93.7344 16.6748 92.9336 16.6748C92.25 16.6748 91.6445 16.7773 91.1172 16.9824C90.5996 17.1875 90.1895 17.4854 89.8867 17.876C89.584 18.2666 89.4326 18.7402 89.4326 19.2969C89.4326 19.7754 89.5645 20.1953 89.8281 20.5566C90.0918 20.9082 90.5312 21.2451 91.1465 21.5674C91.7715 21.8799 92.6309 22.2168 93.7246 22.5781C96.0781 23.2324 97.8604 24.0967 99.0713 25.1709C100.292 26.2451 100.902 27.6562 100.902 29.4043C100.902 30.6152 100.575 31.665 99.9209 32.5537C99.2666 33.4326 98.3486 34.1113 97.167 34.5898C95.9854 35.0684 94.6035 35.3076 93.0215 35.3076ZM112.753 35.3076C110.683 35.3076 108.881 34.8779 107.348 34.0186C105.814 33.1494 104.628 31.9238 103.788 30.3418C102.958 28.75 102.543 26.8701 102.543 24.7021V23.9844C102.543 21.9141 102.943 20.083 103.744 18.4912C104.555 16.8896 105.707 15.6348 107.201 14.7266C108.695 13.8184 110.473 13.3643 112.533 13.3643C113.979 13.3643 115.331 13.5693 116.591 13.9795C117.86 14.3896 118.993 15.0146 119.989 15.8545V21.0107H116.811L116.371 17.7734C116.049 17.5391 115.697 17.3389 115.316 17.1729C114.936 17.0068 114.521 16.8799 114.071 16.792C113.632 16.7041 113.153 16.6602 112.636 16.6602C111.425 16.6602 110.385 16.958 109.516 17.5537C108.646 18.1494 107.978 18.9941 107.509 20.0879C107.05 21.1719 106.82 22.4609 106.82 23.9551V24.7021C106.82 26.1963 107.064 27.4902 107.553 28.584C108.041 29.6777 108.734 30.5273 109.633 31.1328C110.531 31.7285 111.596 32.0264 112.826 32.0264C113.441 32.0264 114.057 31.958 114.672 31.8213C115.297 31.6748 115.863 31.4893 116.371 31.2646L116.811 28.2617H119.989V33.3594C119.159 33.9062 118.124 34.3701 116.884 34.751C115.644 35.1221 114.267 35.3076 112.753 35.3076ZM131.737 35.3076C130.302 35.3076 128.993 35.0391 127.812 34.502C126.63 33.9648 125.609 33.2129 124.75 32.2461C123.9 31.2695 123.246 30.127 122.787 28.8184C122.328 27.5 122.099 26.0596 122.099 24.4971V24.1748C122.099 22.6221 122.328 21.1914 122.787 19.8828C123.246 18.5645 123.9 17.417 124.75 16.4404C125.6 15.4639 126.615 14.707 127.797 14.1699C128.979 13.6328 130.287 13.3643 131.723 13.3643C133.168 13.3643 134.486 13.6328 135.678 14.1699C136.869 14.707 137.895 15.4639 138.754 16.4404C139.613 17.417 140.272 18.5645 140.731 19.8828C141.2 21.1914 141.435 22.6221 141.435 24.1748V24.4971C141.435 26.0596 141.2 27.5 140.731 28.8184C140.272 30.127 139.613 31.2695 138.754 32.2461C137.895 33.2129 136.869 33.9648 135.678 34.502C134.496 35.0391 133.183 35.3076 131.737 35.3076ZM131.737 31.9824C132.948 31.9824 133.954 31.6699 134.755 31.0449C135.556 30.4199 136.156 29.5459 136.557 28.4229C136.967 27.2998 137.172 25.9912 137.172 24.4971V24.1455C137.172 22.6709 136.967 21.377 136.557 20.2637C136.146 19.1406 135.536 18.2666 134.726 17.6416C133.925 17.0166 132.924 16.7041 131.723 16.7041C130.531 16.7041 129.54 17.0166 128.749 17.6416C127.958 18.2568 127.362 19.1211 126.962 20.2344C126.571 21.3477 126.376 22.6514 126.376 24.1455V24.4971C126.376 25.9912 126.571 27.2998 126.962 28.4229C127.362 29.5459 127.958 30.4199 128.749 31.0449C129.55 31.6699 130.546 31.9824 131.737 31.9824ZM143.148 35V32.4365L145.448 31.9531V16.748L143.148 16.25V13.6719H145.448H152.509C154.413 13.6719 156.093 14.1211 157.548 15.0195C159.003 15.9082 160.136 17.1436 160.946 18.7256C161.767 20.2979 162.177 22.1045 162.177 24.1455V24.541C162.177 26.5625 161.771 28.3643 160.961 29.9463C160.16 31.5186 159.037 32.7539 157.592 33.6523C156.146 34.5508 154.472 35 152.567 35H143.148ZM149.726 31.7334H152.348C153.529 31.7334 154.53 31.4258 155.351 30.8105C156.171 30.1855 156.796 29.3311 157.226 28.2471C157.665 27.1631 157.885 25.9277 157.885 24.541V24.1309C157.885 22.7246 157.665 21.4844 157.226 20.4102C156.796 19.3262 156.171 18.4814 155.351 17.876C154.53 17.2607 153.529 16.9531 152.348 16.9531H149.726V31.7334ZM164.037 35V32.4365L166.308 31.9971V16.6895L164.037 16.25V13.6719H180.59V19.4287H177.309L177.118 16.9678H170.585V22.3291H177.807V25.625H170.585V31.7188H177.47L177.66 29.1699H180.912V35H164.037Z" fill="#0064A9"/>
<defs>
<filter id="filter0_d_4374_2437" x="-21.3625" y="-9.97708" width="89.6954" height="78.1889" filterUnits="userSpaceOnUse" color-interpolation-filters="sRGB">
<feFlood flood-opacity="0" result="BackgroundImageFix"/>
<feColorMatrix in="SourceAlpha" type="matrix" values="0 0 0 0 0 0 0 0 0 0 0 0 0 0 0 0 0 0 127 0" result="hardAlpha"/>
<feOffset/>
<feGaussianBlur stdDeviation="10.6667"/>
<feColorMatrix type="matrix" values="0 0 0 0 0 0 0 0 0 0 0 0 0 0 0 0 0 0 0.25 0"/>
<feBlend mode="overlay" in2="BackgroundImageFix" result="effect1_dropShadow_4374_2437"/>
<feBlend mode="normal" in="SourceGraphic" in2="effect1_dropShadow_4374_2437" result="shape"/>
</filter>
<filter id="filter1_d_4374_2437" x="10.9791" y="-21.2123" width="57.3543" height="89.4245" filterUnits="userSpaceOnUse" color-interpolation-filters="sRGB">
<feFlood flood-opacity="0" result="BackgroundImageFix"/>
<feColorMatrix in="SourceAlpha" type="matrix" values="0 0 0 0 0 0 0 0 0 0 0 0 0 0 0 0 0 0 127 0" result="hardAlpha"/>
<feOffset/>
<feGaussianBlur stdDeviation="10.6667"/>
<feColorMatrix type="matrix" values="0 0 0 0 0 0 0 0 0 0 0 0 0 0 0 0 0 0 0.25 0"/>
<feBlend mode="overlay" in2="BackgroundImageFix" result="effect1_dropShadow_4374_2437"/>
<feBlend mode="normal" in="SourceGraphic" in2="effect1_dropShadow_4374_2437" result="shape"/>
</filter>
<linearGradient id="paint0_linear_4374_2437" x1="23.471" y1="0.121216" x2="23.471" y2="46.8789" gradientUnits="userSpaceOnUse">
<stop stop-color="white"/>
<stop offset="1" stop-color="white" stop-opacity="0"/>
</linearGradient>
<clipPath id="clip0_4374_2437">
<rect width="47" height="47" fill="white"/>
</clipPath>
</defs>
</svg>
