<svg xmlns="http://www.w3.org/2000/svg" fill="currentColor" viewBox="0 0 116 21" class="flex h-[22px] dark:hidden"><path fill="#18181B" d="M109.108 20.23q-2.189 0-3.802-.834-1.614-.849-2.517-2.544-.89-1.695-.889-4.199 0-2.38.93-4.103.93-1.737 2.571-2.64 1.641-.902 3.734-.902 2.01 0 3.57.875 1.559.876 2.42 2.544.876 1.668.876 3.994 0 .834-.014 1.326h-10.9v-2.872h8.26l-1.559.534q0-1.122-.328-1.874-.315-.766-.93-1.149t-1.491-.383q-.916 0-1.614.451-.683.438-1.066 1.313-.37.876-.37 2.107v1.408q0 1.258.383 2.134t1.094 1.326q.712.438 1.683.438 1.067 0 1.764-.547.698-.56.875-1.573h4.144q-.191 1.586-1.08 2.75-.876 1.161-2.339 1.79-1.464.63-3.405.63M96.517.221h4.144v19.612h-4.144zM89.465 20.23q-1.176 0-2.106-.41a4.1 4.1 0 0 1-1.56-1.232q-.642-.834-.957-2.051l.438.123v3.173h-4.103V5.404h4.144v3.228l-.465.082q.315-1.162.957-1.983.657-.834 1.6-1.272.944-.45 2.12-.451 1.765 0 3.064.916 1.3.915 1.997 2.64.697 1.71.697 4.062 0 2.339-.711 4.061-.71 1.71-2.038 2.626-1.312.917-3.077.917m-1.286-3.16q.93 0 1.56-.547.642-.547.957-1.545.328-.999.328-2.352 0-1.354-.328-2.353-.315-.997-.957-1.545-.63-.561-1.56-.561-.916 0-1.572.56-.644.547-.972 1.56-.328.998-.328 2.339 0 1.353.328 2.352.33.998.972 1.545.656.547 1.572.547M81.177.221h4.144v5.183h-4.144zM70.775 20.23q-1.354 0-2.435-.534a4.1 4.1 0 0 1-1.682-1.518q-.602-.997-.602-2.325 0-2.024 1.19-3.09 1.19-1.08 3.433-1.41l2.503-.355q.752-.11 1.19-.273.437-.165.642-.438.206-.287.206-.725 0-.45-.247-.82-.233-.383-.71-.602-.466-.233-1.136-.233-1.066 0-1.71.561-.642.547-.697 1.505h-4.28q.054-1.45.875-2.572.834-1.134 2.311-1.764t3.42-.629q2.037 0 3.445.67 1.41.657 2.12 1.887.725 1.231.725 2.94v6.018q0 .972.137 1.806.15.82.424 1.04v.464h-4.308a10 10 0 0 1-.233-1.326 17 17 0 0 1-.095-1.56l.67-.287a4.6 4.6 0 0 1-.958 1.792q-.683.807-1.764 1.3-1.067.477-2.434.478m1.531-3.036q.876 0 1.546-.383.67-.398 1.026-1.094.369-.697.369-1.587v-1.887l.342.191a2.2 2.2 0 0 1-.82.67q-.48.233-1.3.397l-1.053.205q-1.052.205-1.587.63-.52.423-.52 1.19t.562 1.216q.56.452 1.436.452M51.962 5.404h4.404l3.788 12.378h-1.327l3.638-12.378h4.281l-4.992 14.43h-4.609zM45.485 20.23q-2.148 0-3.775-.93-1.614-.93-2.503-2.653-.875-1.724-.875-4.035t.875-4.02q.89-1.725 2.503-2.654 1.627-.93 3.775-.93t3.76.93q1.615.93 2.49 2.653.889 1.71.889 4.021t-.89 4.035q-.875 1.723-2.488 2.653-1.614.93-3.761.93m0-3.173q.902 0 1.545-.492.642-.507.985-1.491.342-.999.342-2.462 0-2.174-.753-3.296-.752-1.135-2.12-1.135-.901 0-1.559.506-.642.492-.984 1.49-.342.986-.342 2.435t.342 2.448.984 1.505q.657.492 1.56.492M26.22.221h4.294v16.556l-.766-.889h5.786c3.659 0 3.158 3.945 3.158 3.945H26.22z"></path><mask id="lovable-logo-text-light_svg__b" width="20" height="21" x="0" y="0" maskUnits="userSpaceOnUse" style="mask-type:alpha"><path fill="url(#lovable-logo-text-light_svg__a)" fill-rule="evenodd" d="M5.904 0c3.26 0 5.904 2.65 5.904 5.92v2.25h1.965c3.26 0 5.904 2.65 5.904 5.92 0 3.268-2.643 5.919-5.904 5.919H0V5.919C0 2.65 2.643 0 5.904 0" clip-rule="evenodd"></path></mask><g mask="url(#lovable-logo-text-light_svg__b)"><g filter="url(#lovable-logo-text-light_svg__c)"><circle cx="8.632" cy="10.681" r="13.32" fill="#4B73FF"></circle></g><g filter="url(#lovable-logo-text-light_svg__d)"><ellipse cx="10.095" cy="3.371" fill="#FF66F4" rx="17.059" ry="13.32"></ellipse></g><g filter="url(#lovable-logo-text-light_svg__e)"><ellipse cx="12.877" cy="0.864" fill="#FF0105" rx="13.32" ry="11.698"></ellipse></g><g filter="url(#lovable-logo-text-light_svg__f)"><circle cx="10.332" cy="3.367" r="8.011" fill="#FE7B02"></circle></g></g><defs><filter id="lovable-logo-text-light_svg__c" width="38.578" height="38.579" x="-10.658" y="-8.609" color-interpolation-filters="sRGB" filterUnits="userSpaceOnUse"><feFlood flood-opacity="0" result="BackgroundImageFix"></feFlood><feBlend in="SourceGraphic" in2="BackgroundImageFix" result="shape"></feBlend><feGaussianBlur result="effect1_foregroundBlur_19187_11610" stdDeviation="2.985"></feGaussianBlur></filter><filter id="lovable-logo-text-light_svg__d" width="46.057" height="38.579" x="-12.934" y="-15.918" color-interpolation-filters="sRGB" filterUnits="userSpaceOnUse"><feFlood flood-opacity="0" result="BackgroundImageFix"></feFlood><feBlend in="SourceGraphic" in2="BackgroundImageFix" result="shape"></feBlend><feGaussianBlur result="effect1_foregroundBlur_19187_11610" stdDeviation="2.985"></feGaussianBlur></filter><filter id="lovable-logo-text-light_svg__e" width="38.578" height="35.334" x="-6.412" y="-16.803" color-interpolation-filters="sRGB" filterUnits="userSpaceOnUse"><feFlood flood-opacity="0" result="BackgroundImageFix"></feFlood><feBlend in="SourceGraphic" in2="BackgroundImageFix" result="shape"></feBlend><feGaussianBlur result="effect1_foregroundBlur_19187_11610" stdDeviation="2.985"></feGaussianBlur></filter><filter id="lovable-logo-text-light_svg__f" width="27.96" height="27.96" x="-3.648" y="-10.613" color-interpolation-filters="sRGB" filterUnits="userSpaceOnUse"><feFlood flood-opacity="0" result="BackgroundImageFix"></feFlood><feBlend in="SourceGraphic" in2="BackgroundImageFix" result="shape"></feBlend><feGaussianBlur result="effect1_foregroundBlur_19187_11610" stdDeviation="2.985"></feGaussianBlur></filter><linearGradient id="lovable-logo-text-light_svg__a" x1="6.622" x2="12.617" y1="3.516" y2="20.001" gradientUnits="userSpaceOnUse"><stop offset="0.025" stop-color="#FF8E63"></stop><stop offset="0.56" stop-color="#FF7EB0"></stop><stop offset="0.95" stop-color="#4B73FF"></stop></linearGradient></defs></svg>