<svg width="83" height="33" viewBox="0 0 83 33" fill="none" xmlns="http://www.w3.org/2000/svg">
<path d="M0 0H83V27.6667H41.5V32.2778H23.0556V27.6667H0V0ZM4.61111 23.0556H13.8333V9.22222H18.4444V23.0556H23.0556V4.61111H4.61111V23.0556ZM27.6667 4.61111V27.6667H36.8889V23.0556H46.1111V4.61111H27.6667ZM36.8889 9.22222H41.5V18.4444H36.8889V9.22222ZM50.7222 4.61111V23.0556H59.9444V9.22222H64.5556V23.0556H69.1667V9.22222H73.7778V23.0556H78.3889V4.61111H50.7222Z" fill="#CB3837"/>
<path d="M4.61108 23.0555H13.8333V9.2222H18.4444V23.0555H23.0555V4.61108H4.61108V23.0555Z" fill="white"/>
<path d="M27.6667 4.61108V27.6666H36.8889V23.0555H46.1111V4.61108H27.6667ZM41.5 18.4444H36.8889V9.2222H41.5V18.4444Z" fill="white"/>
<path d="M50.7222 4.61108V23.0555H59.9445V9.2222H64.5556V23.0555H69.1667V9.2222H73.7778V23.0555H78.3889V4.61108H50.7222Z" fill="white"/>
</svg>
