<svg width="156" height="39" viewBox="0 0 156 39" fill="none" xmlns="http://www.w3.org/2000/svg">
<g clip-path="url(#clip0_14_9)">
<path d="M49.9639 30.5551L51.906 26.1331C54.0048 27.6685 56.7928 28.4669 59.5494 28.4669C61.5856 28.4669 62.8699 27.6992 62.8699 26.5323C62.8386 23.2771 50.6843 25.826 50.5904 17.6575C50.559 13.5118 54.3181 10.3181 59.6434 10.3181C62.8072 10.3181 65.9711 11.0858 68.2265 12.8362L66.4096 17.3504C64.3422 16.0606 61.7735 15.1394 59.3301 15.1394C57.6699 15.1394 56.5735 15.9071 56.5735 16.8897C56.6048 20.0834 68.853 18.3331 68.9783 26.1331C68.9783 30.3708 65.3133 33.3496 60.0506 33.3496C56.1976 33.3496 52.6578 32.459 49.9639 30.5551ZM124.487 24.5362C123.516 26.1945 121.699 27.3307 119.6 27.3307C116.499 27.3307 113.993 24.874 113.993 21.8338C113.993 18.7937 116.499 16.337 119.6 16.337C121.699 16.337 123.516 17.4732 124.487 19.1315L129.843 16.2142C127.839 12.7134 123.986 10.3181 119.6 10.3181C113.116 10.3181 107.853 15.4771 107.853 21.8338C107.853 28.1905 113.116 33.3496 119.6 33.3496C124.017 33.3496 127.839 30.985 129.843 27.4535L124.487 24.5362ZM71.6723 0.7677H78.3759V32.9197H71.6723V0.7677ZM132.475 0.7677V32.9197H139.178V23.2771L147.135 32.9197H155.718L145.6 21.4653L154.966 10.7787H146.759L139.178 19.6535V0.7677H132.475ZM98.2988 24.5976C97.3277 26.1638 95.3229 27.3307 93.0675 27.3307C89.9663 27.3307 87.4603 24.874 87.4603 21.8338C87.4603 18.7937 89.9663 16.337 93.0675 16.337C95.3229 16.337 97.3277 17.5653 98.2988 19.1622V24.5976ZM98.2988 10.7787V13.389C97.2024 11.5771 94.4771 10.3181 91.6265 10.3181C85.7374 10.3181 81.1012 15.4157 81.1012 21.8031C81.1012 28.1905 85.7374 33.3496 91.6265 33.3496C94.4771 33.3496 97.2024 32.0905 98.2988 30.2787V32.889H105.002V10.7787H98.2988Z" fill="black"/>
<path d="M8.52037 24.5668C8.52037 26.8086 6.67218 28.6204 4.38543 28.6204C2.09868 28.6204 0.250488 26.8086 0.250488 24.5668C0.250488 22.3251 2.09868 20.5133 4.38543 20.5133H8.52037V24.5668ZM10.5878 24.5668C10.5878 22.3251 12.436 20.5133 14.7228 20.5133C17.0095 20.5133 18.8577 22.3251 18.8577 24.5668V34.7007C18.8577 36.9424 17.0095 38.7542 14.7228 38.7542C12.436 38.7542 10.5878 36.9424 10.5878 34.7007V24.5668Z" fill="#E01E5A"/>
<path d="M14.7229 8.29129C12.4361 8.29129 10.5879 6.47948 10.5879 4.23775C10.5879 1.99602 12.4361 0.184204 14.7229 0.184204C17.0096 0.184204 18.8578 1.99602 18.8578 4.23775V8.29129H14.7229ZM14.7229 10.3488C17.0096 10.3488 18.8578 12.1606 18.8578 14.4023C18.8578 16.644 17.0096 18.4559 14.7229 18.4559H4.35418C2.06743 18.4559 0.219238 16.644 0.219238 14.4023C0.219238 12.1606 2.06743 10.3488 4.35418 10.3488H14.7229Z" fill="#36C5F0"/>
<path d="M31.2939 14.4023C31.2939 12.1606 33.1421 10.3488 35.4288 10.3488C37.7156 10.3488 39.5638 12.1606 39.5638 14.4023C39.5638 16.644 37.7156 18.4559 35.4288 18.4559H31.2939V14.4023ZM29.2264 14.4023C29.2264 16.644 27.3782 18.4559 25.0915 18.4559C22.8047 18.4559 20.9565 16.644 20.9565 14.4023V4.23775C20.9565 1.99602 22.8047 0.184204 25.0915 0.184204C27.3782 0.184204 29.2264 1.99602 29.2264 4.23775V14.4023Z" fill="#2EB67D"/>
<path d="M25.0915 30.6472C27.3782 30.6472 29.2264 32.459 29.2264 34.7007C29.2264 36.9424 27.3782 38.7542 25.0915 38.7542C22.8047 38.7542 20.9565 36.9424 20.9565 34.7007V30.6472H25.0915ZM25.0915 28.6204C22.8047 28.6204 20.9565 26.8086 20.9565 24.5668C20.9565 22.3251 22.8047 20.5133 25.0915 20.5133H35.4602C37.7469 20.5133 39.5951 22.3251 39.5951 24.5668C39.5951 26.8086 37.7469 28.6204 35.4602 28.6204H25.0915Z" fill="#ECB22E"/>
</g>
<defs>
<clipPath id="clip0_14_9">
<rect width="156" height="39" fill="white"/>
</clipPath>
</defs>
</svg>
