<svg width="58" height="59" viewBox="0 0 58 59" fill="none" xmlns="http://www.w3.org/2000/svg">
<path d="M4.12231 29.4993C4.12231 39.5163 9.84515 48.173 18.1437 52.2753L6.27625 19.2001C4.89584 22.3474 4.12231 25.8304 4.12231 29.4993Z" fill="#21759B"/>
<path d="M45.796 28.2222C45.796 25.0946 44.6916 22.9286 43.7443 21.2427C42.4832 19.1581 41.3012 17.3928 41.3012 15.3082C41.3012 12.9819 43.0357 10.8164 45.4788 10.8164C45.5891 10.8164 45.6938 10.8303 45.8012 10.8366C41.375 6.7117 35.478 4.19324 29.001 4.19324C20.3095 4.19324 12.6628 8.72937 8.21436 15.6C8.79805 15.6178 9.34813 15.6303 9.81537 15.6303C12.4176 15.6303 16.4457 15.3092 16.4457 15.3092C17.7868 15.2287 17.9449 17.2324 16.6052 17.3938C16.6052 17.3938 15.2575 17.5551 13.7578 17.635L22.8176 45.0468L28.262 28.437L24.3859 17.634C23.0462 17.5541 21.777 17.3928 21.777 17.3928C20.4364 17.3129 20.5936 15.2278 21.9342 15.3082C21.9342 15.3082 26.0428 15.6294 28.4874 15.6294C31.0891 15.6294 35.1177 15.3082 35.1177 15.3082C36.4598 15.2278 36.6174 17.2315 35.2772 17.3928C35.2772 17.3928 33.9267 17.5541 32.4298 17.634L41.4205 44.8383L43.902 36.4031C44.9775 32.9028 45.796 30.3887 45.796 28.2222Z" fill="#21759B"/>
<path d="M29.4373 31.7129L21.9729 53.7767C24.2016 54.4431 26.5586 54.8077 29.0009 54.8077C31.898 54.8077 34.6764 54.2982 37.2625 53.3731C37.1958 53.2648 37.1352 53.1497 37.0855 53.0245L29.4373 31.7129Z" fill="#21759B"/>
<path d="M50.8309 17.3577C50.9379 18.1638 50.9985 19.0291 50.9985 19.9599C50.9985 22.528 50.527 25.4148 49.1068 29.0245L41.5074 51.3743C48.9037 46.987 53.8786 38.8359 53.8786 29.4998C53.8791 25.0999 52.7742 20.9625 50.8309 17.3577Z" fill="#21759B"/>
<path d="M29.0009 0C13.0102 0 0 13.2333 0 29.4993C0 45.7672 13.0102 59 29.0009 59C44.9912 59 58.0033 45.7672 58.0033 29.4993C58.0028 13.2333 44.9912 0 29.0009 0ZM29.0009 57.6478C13.7435 57.6478 1.32976 45.0203 1.32976 29.4993C1.32976 13.9792 13.743 1.35265 29.0009 1.35265C44.2579 1.35265 56.6707 13.9792 56.6707 29.4993C56.6707 45.0203 44.2579 57.6478 29.0009 57.6478Z" fill="#21759B"/>
</svg>
