<svg viewBox="-0.36855345911949744 -0.2888800000000007 23.732159329140462 24.81732" class="size-8" fill="currentColor" xmlns="http://www.w3.org/2000/svg" style="max-height: 500px" width="23.732159329140462" height="24.81732"><mask style="mask-type:alpha" maskUnits="userSpaceOnUse" y="0" x="0" height="24" width="23" id="lovable-logo_svg__b"><path clip-rule="evenodd" d="M6.898 0c3.81 0 6.898 3.179 6.898 7.1v2.7h2.295c3.81 0 6.898 3.178 6.898 7.1S19.901 24 16.091 24H0V7.1C0 3.18 3.088 0 6.898 0" fill-rule="evenodd" fill="url(#lovable-logo_svg__a)"/></mask><g mask="url(#lovable-logo_svg__b)"><g filter="url(#lovable-logo_svg__c)"><ellipse ry="15.977" rx="15.562" fill="#4B73FF" cy="12.811" cx="10.084"/></g><g filter="url(#lovable-logo_svg__d)"><ellipse ry="15.977" rx="19.931" fill="#FF66F4" cy="4.043" cx="11.794"/></g><g filter="url(#lovable-logo_svg__e)"><ellipse ry="14.031" rx="15.562" fill="#FF0105" cy="1.037" cx="15.045"/></g><g filter="url(#lovable-logo_svg__f)"><ellipse ry="9.608" rx="9.359" fill="#FE7B02" cy="4.039" cx="12.071"/></g></g><defs><filter filterUnits="userSpaceOnUse" color-interpolation-filters="sRGB" y="-10.326" x="-12.638" height="46.274" width="45.444" id="lovable-logo_svg__c"><feFlood result="BackgroundImageFix" flood-opacity="0"/><feBlend result="shape" in2="BackgroundImageFix" in="SourceGraphic"/><feGaussianBlur stdDeviation="3.58" result="effect1_foregroundBlur_19703_3420"/></filter><filter filterUnits="userSpaceOnUse" color-interpolation-filters="sRGB" y="-19.094" x="-15.297" height="46.274" width="54.181" id="lovable-logo_svg__d"><feFlood result="BackgroundImageFix" flood-opacity="0"/><feBlend result="shape" in2="BackgroundImageFix" in="SourceGraphic"/><feGaussianBlur stdDeviation="3.58" result="effect1_foregroundBlur_19703_3420"/></filter><filter filterUnits="userSpaceOnUse" color-interpolation-filters="sRGB" y="-20.154" x="-7.677" height="42.383" width="45.444" id="lovable-logo_svg__e"><feFlood result="BackgroundImageFix" flood-opacity="0"/><feBlend result="shape" in2="BackgroundImageFix" in="SourceGraphic"/><feGaussianBlur stdDeviation="3.58" result="effect1_foregroundBlur_19703_3420"/></filter><filter filterUnits="userSpaceOnUse" color-interpolation-filters="sRGB" y="-12.73" x="-4.448" height="33.538" width="33.038" id="lovable-logo_svg__f"><feFlood result="BackgroundImageFix" flood-opacity="0"/><feBlend result="shape" in2="BackgroundImageFix" in="SourceGraphic"/><feGaussianBlur stdDeviation="3.58" result="effect1_foregroundBlur_19703_3420"/></filter><linearGradient gradientUnits="userSpaceOnUse" y2="23.867" y1="4.218" x2="15.072" x1="7.736" id="lovable-logo_svg__a"><stop stop-color="#FF8E63" offset="0.025"/><stop stop-color="#FF7EB0" offset="0.56"/><stop stop-color="#4B73FF" offset="0.95"/></linearGradient></defs></svg>