<svg xmlns="http://www.w3.org/2000/svg" width="202" height="66"><path fill="hsl(0, 0%, 0%)" d="M0 0h43.714v21.857H21.857zm0 21.857h21.857l21.857 21.857H0zm0 21.857h21.857v21.857zm68.379-26.471h17.67v5.615H75.067v7.803h10.982v5.491H75.067v9.991h-6.688zm21.303 9h6.317v4.17c.33-1.433 1.005-2.533 2.023-3.303 1.044-.799 2.203-1.197 3.468-1.197.661 0 1.212.056 1.651.165v5.863a17.463 17.463 0 0 0-1.899-.124c-1.734 0-3.04.563-3.922 1.692-.879 1.101-1.321 2.752-1.321 4.955v7.679h-6.314v-19.9zm23.431 20.437c-1.926 0-3.606-.455-5.037-1.363a8.82 8.82 0 0 1-3.22-3.716c-.743-1.595-1.117-3.4-1.117-5.408 0-1.982.388-3.772 1.158-5.367a8.958 8.958 0 0 1 3.303-3.757c1.457-.908 3.123-1.363 4.996-1.363 1.403 0 2.657.304 3.757.909 1.1.607 1.926 1.433 2.477 2.477v-2.849h6.275v19.9h-6.275v-2.808c-.551.991-1.404 1.802-2.56 2.436a7.815 7.815 0 0 1-3.757.909zm1.817-5.244c1.513 0 2.683-.495 3.509-1.486.826-.991 1.239-2.244 1.239-3.757 0-1.486-.413-2.725-1.239-3.716-.826-.991-1.996-1.486-3.509-1.486-1.433 0-2.587.481-3.468 1.445-.853.964-1.28 2.215-1.28 3.757 0 1.542.427 2.807 1.28 3.798.881.964 2.037 1.445 3.468 1.445zm15.193-15.193h6.317v2.89c.442-1.02 1.156-1.846 2.146-2.477 1.02-.631 2.203-.95 3.551-.95 3.138 0 5.217 1.224 6.234 3.675a6.28 6.28 0 0 1 2.519-2.642 7.225 7.225 0 0 1 3.839-1.033c4.707 0 7.06 2.696 7.06 8.092v12.345h-6.358V34.954c0-1.347-.248-2.338-.743-2.972-.496-.632-1.239-.95-2.23-.95-1.073 0-1.899.372-2.477 1.115-.578.716-.867 1.967-.867 3.757v10.239h-6.358v-11.23c0-1.348-.247-2.326-.743-2.931-.466-.632-1.197-.95-2.186-.95-1.102 0-1.942.372-2.52 1.115-.578.716-.867 1.967-.867 3.757v10.239h-6.315v-19.9zm55.396 8.918c0 .852-.056 1.775-.168 2.766h-14.695c.056 1.294.495 2.283 1.321 2.973.826.687 1.943 1.032 3.344 1.032 1.955 0 3.194-.593 3.716-1.776h6.193c-.304 1.955-1.377 3.536-3.221 4.748-1.816 1.183-4.046 1.776-6.688 1.776-3.412 0-6.096-.923-8.051-2.767-1.926-1.845-2.89-4.417-2.89-7.72 0-2.147.44-4.005 1.321-5.574a8.715 8.715 0 0 1 3.757-3.633c1.625-.852 3.51-1.28 5.659-1.28 2.035 0 3.837.399 5.406 1.198 1.596.799 2.822 1.913 3.674 3.344.882 1.433 1.322 3.07 1.322 4.913zm-6.237-1.156c-.027-1.321-.398-2.327-1.115-3.014-.714-.687-1.748-1.032-3.096-1.032s-2.421.371-3.22 1.115c-.77.716-1.169 1.692-1.198 2.931zm9.022-7.762h6.317v4.17c.33-1.433 1.005-2.533 2.023-3.303a5.584 5.584 0 0 1 3.468-1.197c.66 0 1.212.056 1.651.165v5.863a17.463 17.463 0 0 0-1.899-.124c-1.734 0-3.04.563-3.922 1.692-.882 1.101-1.321 2.752-1.321 4.955v7.679h-6.317z"/></svg>