<svg class="svg-icon" style="width: 1em; height: 1em;vertical-align: middle;fill: currentColor;overflow: hidden;" viewBox="0 0 1024 1024" version="1.1" xmlns="http://www.w3.org/2000/svg"><path d="M362.464248 1017.014574H123.769054a42.06338 42.06338 0 0 1-42.06338-42.06338V388.088062a42.06338 42.06338 0 0 1 42.055442-42.055442h148.218047a42.055442 42.055442 0 0 1 39.967752 28.94983c113.235349 345.32614 92.580713-13.970853 92.580713 599.968744a42.06338 42.06338 0 0 1-42.06338 42.06338z" fill="#D1D3D4" /><path d="M320.400868 1017.014574V592.943628a42.06338 42.06338 0 0 1 32.148837-40.88062c46.992868-11.367194 40.904434 23.258295 159.450295 222.906542 116.212093-195.726884 46.675349-211.507597 418.387349 170.658729a42.087194 42.087194 0 0 1 4.80248 52.739969c-17.463566 26.290605 6.985426 18.646326-614.781023 18.646326z" fill="#48AEE2" /><path d="M930.387349 945.628279C559.739039 564.549457 629.077333 577.782078 512 774.96955v242.045024c418.57786 0 406.170791 6.96955 423.181891-18.654264a42.079256 42.079256 0 0 0-4.80248-52.732031z" fill="#39A3DB" /><path d="M870.082481 1004.274109C563.604837 689.175814 560.834481 699.701581 575.622946 664.679194c14.478884-34.268279 21.154729-25.695256 324.608-25.695256a42.06338 42.06338 0 0 1 42.06338 42.055442v293.911814c0 37.784806-46.04031 56.232682-72.211845 29.322915z" fill="#F59D00" /><path d="M942.294326 723.10276c-356.613953 0-340.984062 4.524651-357.661768-12.288-46.437209-46.849984 52.224-106.440434 127.460217-335.95138a41.976062 41.976062 0 0 1 39.928062-28.83076h148.210109a42.06338 42.06338 0 0 1 42.06338 42.055442v335.014698z" fill="#57BDB7" /><path d="M512 1.984496c-189.900403 0-351.986109 179.779473-279.980651 399.209178 45.889488 139.962543 173.230636 363.615256 244.323225 477.26338a42.06338 42.06338 0 0 0 71.32279 0c49.755287-79.546543 193.480434-322.274233 244.323225-477.255442C863.700341 182.565705 702.527504 1.984496 512 1.984496z m0 449.924961c-82.777302 0-150.123163-67.34586-150.123163-150.139038 0-82.777302 67.34586-150.123163 150.115225-150.123163 82.777302 0 150.123163 67.337922 150.123163 150.123163 0 82.793178-67.34586 150.146977-150.123163 150.146976z" fill="#FF5E5B" /><path d="M512 1.984496v149.66276c82.769364 0 150.115225 67.34586 150.115225 150.123163 0 82.793178-67.34586 150.139039-150.115225 150.146976v446.289365c14.49476 0 27.965519-7.461705 35.657426-19.757644 49.755287-79.538605 193.480434-322.266295 244.323225-477.247504C863.700341 182.565705 702.527504 1.984496 512 1.984496z" fill="#FF423D" /></svg>