<svg width="461" height="201" viewBox="0 0 461 201" fill="none" xmlns="http://www.w3.org/2000/svg">
<g clip-path="url(#clip0_4519_2388)">
<path d="M0 93H77V118.714H38.5V123H21.3889V118.714H0V93ZM4.27778 114.429H12.8333V101.571H17.1111V114.429H21.3889V97.2857H4.27778V114.429ZM25.6667 97.2857V118.714H34.2222V114.429H42.7778V97.2857H25.6667ZM34.2222 101.571H38.5V110.143H34.2222V101.571ZM47.0556 97.2857V114.429H55.6111V101.571H59.8889V114.429H64.1667V101.571H68.4444V114.429H72.7222V97.2857H47.0556Z" fill="#CB3837"/>
<path d="M4.27783 114.429H12.8334V101.571H17.1112V114.429H21.3889V97.2858H4.27783V114.429Z" fill="white"/>
<path d="M25.6667 97.2858V118.714H34.2223V114.429H42.7779V97.2858H25.6667ZM38.5001 110.143H34.2223V101.571H38.5001V110.143Z" fill="white"/>
<path d="M47.0557 97.2858V114.429H55.6112V101.571H59.889V114.429H64.1668V101.571H68.4446V114.429H72.7223V97.2858H47.0557Z" fill="white"/>
</g>
<g clip-path="url(#clip1_4519_2388)">
<path d="M393.749 40.8062C390.436 40.8235 387.557 41.6189 385.147 42.7947C384.262 41.0483 383.378 39.492 383.222 38.3507C383.049 37.0193 382.84 36.2066 383.049 34.6157C383.257 33.0249 384.193 30.7597 384.176 30.5867C384.158 30.4138 383.968 29.6011 382.06 29.5838C380.152 29.5665 378.505 29.9469 378.314 30.4484C378.123 30.9499 377.759 32.0911 377.516 33.267C377.187 34.9961 373.701 41.1693 371.707 44.4029C371.065 43.1406 370.51 42.0339 370.389 41.152C370.215 39.8205 370.007 39.0078 370.215 37.417C370.423 35.8261 371.36 33.5609 371.343 33.388C371.325 33.2151 371.134 32.4024 369.227 32.3851C367.319 32.3678 365.672 32.7482 365.481 33.2497C365.29 33.7511 365.082 34.927 364.683 36.0682C364.284 37.2095 359.654 47.5154 358.44 50.1783C357.816 51.5444 357.278 52.6337 356.897 53.3773C356.897 53.3773 356.879 53.4292 356.827 53.5156C356.498 54.1554 356.307 54.5013 356.307 54.5013C356.307 54.5013 356.307 54.5012 356.307 54.5185C356.047 54.9854 355.769 55.4177 355.631 55.4177C355.527 55.4177 355.336 54.1727 355.665 52.4781C356.359 48.8987 358.007 43.3308 357.989 43.1406C357.989 43.0368 358.301 42.0685 356.914 41.567C355.561 41.0655 355.076 41.8956 354.954 41.8956C354.833 41.8956 354.746 42.1895 354.746 42.1895C354.746 42.1895 356.255 35.9299 351.867 35.9299C349.127 35.9299 345.347 38.9214 343.474 41.6189C342.295 42.2587 339.78 43.6247 337.092 45.0945C336.069 45.6652 335.011 46.2358 334.022 46.7718C333.953 46.7027 333.884 46.6162 333.814 46.547C328.508 40.8926 318.692 36.8982 319.108 29.3071C319.264 26.5405 320.218 19.2779 337.959 10.4591C352.561 3.28304 364.18 5.27159 366.192 9.68099C369.071 15.9752 359.966 27.6644 344.879 29.359C339.121 29.9988 336.103 27.7855 335.34 26.9555C334.543 26.0909 334.421 26.039 334.126 26.2119C333.641 26.4713 333.953 27.2494 334.126 27.699C334.577 28.8749 336.433 30.9499 339.572 31.9701C342.347 32.8693 349.093 33.3707 357.261 30.2236C366.4 26.6961 373.545 16.8917 371.447 8.67807C369.348 0.343438 355.475 -2.40595 342.347 2.24553C334.543 5.01222 326.08 9.36974 319.993 15.0414C312.761 21.7852 311.616 27.6471 312.085 30.1026C313.767 38.8176 325.82 44.4893 330.641 48.6912C330.398 48.8296 330.172 48.9506 329.982 49.0543C327.571 50.2475 318.38 55.0373 316.091 60.1038C313.489 65.8447 316.507 69.9601 318.501 70.5134C324.692 72.2253 331.057 69.1474 334.473 64.0636C337.89 58.9798 337.473 52.3744 335.895 49.3483C335.878 49.3137 335.861 49.2791 335.826 49.2445C336.45 48.8814 337.092 48.501 337.716 48.1379C338.948 47.4116 340.162 46.7372 341.202 46.1839C340.612 47.792 340.179 49.7114 339.971 52.4781C339.711 55.729 341.046 59.9482 342.798 61.6082C343.578 62.3344 344.497 62.3517 345.087 62.3517C347.133 62.3517 348.052 60.6571 349.075 58.6513C350.324 56.1958 351.451 53.3427 351.451 53.3427C351.451 53.3427 350.047 61.0548 353.862 61.0548C355.249 61.0548 356.654 59.2565 357.278 58.34C357.278 58.3573 357.278 58.3573 357.278 58.3573C357.278 58.3573 357.313 58.3054 357.382 58.1844C357.521 57.9596 357.608 57.8213 357.608 57.8213C357.608 57.8213 357.608 57.804 357.608 57.7867C358.163 56.8183 359.411 54.6223 361.267 50.9737C363.66 46.2704 365.967 40.3912 365.967 40.3912C365.967 40.3912 366.175 41.8264 366.886 44.2127C367.302 45.6133 368.169 47.1522 368.863 48.6393C368.308 49.4175 367.961 49.8498 367.961 49.8498C367.961 49.8498 367.961 49.8498 367.978 49.8671C367.527 50.455 367.042 51.0948 366.504 51.7173C364.614 53.9652 362.359 56.5417 362.047 57.2852C361.683 58.1671 361.77 58.8069 362.463 59.3257C362.966 59.7061 363.868 59.7579 364.787 59.7061C366.487 59.585 367.683 59.17 368.273 58.9107C369.192 58.5821 370.267 58.0806 371.273 57.3371C373.129 55.9711 374.256 54.0171 374.152 51.4406C374.1 50.0227 373.632 48.6048 373.059 47.2733C373.233 47.0312 373.389 46.7891 373.562 46.547C376.493 42.276 378.765 37.5899 378.765 37.5899C378.765 37.5899 378.973 39.0251 379.684 41.4114C380.031 42.6218 380.742 43.936 381.366 45.2156C378.609 47.4462 376.909 50.04 376.302 51.7346C375.21 54.8817 376.06 56.2996 377.672 56.6281C378.401 56.7838 379.441 56.4379 380.204 56.1094C381.176 55.7981 382.32 55.2621 383.413 54.4667C385.268 53.1006 387.055 51.1985 386.95 48.6221C386.898 47.4462 386.586 46.2877 386.153 45.1637C388.494 44.1954 391.511 43.6593 395.361 44.1089C403.616 45.0772 405.246 50.2129 404.934 52.3744C404.622 54.5358 402.888 55.7117 402.316 56.0748C401.743 56.4379 401.553 56.559 401.605 56.8183C401.674 57.1988 401.951 57.1815 402.437 57.1123C403.113 56.9913 406.773 55.3658 406.929 51.3887C407.189 46.305 402.333 40.7543 393.749 40.8062ZM330.068 62.2134C327.328 65.1876 323.513 66.3115 321.866 65.3605C320.097 64.3403 320.79 59.9482 324.155 56.8011C326.201 54.8817 328.837 53.1006 330.589 52.0112C330.988 51.7691 331.577 51.4233 332.288 50.991C332.41 50.9219 332.479 50.8873 332.479 50.8873C332.618 50.8008 332.756 50.7144 332.895 50.6279C334.126 55.1237 332.947 59.0836 330.068 62.2134ZM350.012 48.6912C349.058 51.0083 347.064 56.9394 345.85 56.6108C344.809 56.3342 344.168 51.8383 345.642 47.3943C346.387 45.1637 347.965 42.5008 348.885 41.4633C350.376 39.8032 352.024 39.2499 352.422 39.9243C352.925 40.8062 350.601 47.2387 350.012 48.6912ZM366.469 56.5417C366.071 56.7492 365.689 56.8875 365.516 56.7838C365.394 56.7146 365.689 56.4379 365.689 56.4379C365.689 56.4379 367.753 54.2246 368.568 53.2217C369.036 52.6337 369.591 51.9421 370.181 51.1639C370.181 51.2331 370.181 51.3196 370.181 51.3887C370.181 54.0344 367.614 55.8154 366.469 56.5417ZM379.164 53.6539C378.869 53.4464 378.921 52.7548 379.91 50.5933C380.291 49.746 381.193 48.3281 382.736 46.962C382.91 47.5154 383.031 48.0514 383.014 48.5529C382.996 51.8902 380.603 53.1352 379.164 53.6539Z" fill="#CD6799"/>
</g>
<g clip-path="url(#clip2_4519_2388)">
<path d="M389 188.167C389 195.225 383.225 201 376.167 201H324.833C317.775 201 312 195.225 312 188.167V136.833C312 129.775 317.775 124 324.833 124H376.167C383.225 124 389 129.775 389 136.833V188.167Z" fill="#563D7C"/>
<path d="M332.923 140.734H354.753C358.779 140.734 362.012 141.652 364.44 143.502C366.869 145.351 368.089 148.132 368.089 151.868C368.089 154.133 367.536 156.071 366.428 157.681C365.321 159.292 363.736 160.55 361.673 161.431V161.556C364.44 162.148 366.542 163.456 367.963 165.482C369.385 167.52 370.102 170.062 370.102 173.132C370.102 174.893 369.788 176.541 369.159 178.064C368.53 179.599 367.548 180.92 366.202 182.027C364.856 183.134 363.145 184.015 361.043 184.669C358.942 185.323 356.451 185.65 353.557 185.65H332.923V140.734ZM340.787 159.543H353.62C355.507 159.543 357.08 159.015 358.338 157.933C359.597 156.851 360.226 155.316 360.226 153.303C360.226 151.038 359.659 149.44 358.527 148.522C357.395 147.603 355.759 147.138 353.62 147.138H340.787V159.543ZM340.787 179.234H354.69C357.08 179.234 358.942 178.617 360.251 177.372C361.572 176.139 362.239 174.377 362.239 172.112C362.239 169.885 361.584 168.187 360.251 166.979C358.917 165.771 357.08 165.192 354.69 165.192H340.787V179.234Z" fill="white"/>
</g>
<path d="M283.432 52.2511C283.571 52.0123 283.49 51.7063 283.251 51.5676L279.36 49.308C279.121 49.1693 278.815 49.2505 278.676 49.4893C278.537 49.7281 278.619 50.0341 278.857 50.1728L282.317 52.1813L280.308 55.6405C280.169 55.8793 280.251 56.1853 280.489 56.3239C280.728 56.4626 281.034 56.3814 281.173 56.1426L283.432 52.2511ZM87.1282 104.483L283.128 52.4833L282.872 51.5167L86.8718 103.517L87.1282 104.483Z" fill="black"/>
<path d="M283.237 163.44C283.48 163.31 283.571 163.007 283.44 162.763L281.311 158.799C281.18 158.556 280.877 158.465 280.634 158.595C280.39 158.726 280.299 159.029 280.43 159.273L282.323 162.796L278.799 164.689C278.556 164.82 278.465 165.123 278.595 165.366C278.726 165.61 279.029 165.701 279.273 165.57L283.237 163.44ZM86.8559 104.479L282.856 163.479L283.144 162.521L87.1441 103.521L86.8559 104.479Z" fill="black"/>
<path d="M460.5 31H461V30.5H460.5V31ZM460.5 167V167.5H461V167H460.5ZM431.646 166.646C431.451 166.842 431.451 167.158 431.646 167.354L434.828 170.536C435.024 170.731 435.34 170.731 435.536 170.536C435.731 170.34 435.731 170.024 435.536 169.828L432.707 167L435.536 164.172C435.731 163.976 435.731 163.66 435.536 163.464C435.34 163.269 435.024 163.269 434.828 163.464L431.646 166.646ZM432 31.5H460.5V30.5H432V31.5ZM460 31V167H461V31H460ZM460.5 166.5H432V167.5H460.5V166.5Z" fill="black"/>
<defs>
<clipPath id="clip0_4519_2388">
<rect width="77" height="30" fill="white" transform="translate(0 93)"/>
</clipPath>
<clipPath id="clip1_4519_2388">
<rect width="95" height="71" fill="white" transform="translate(312)"/>
</clipPath>
<clipPath id="clip2_4519_2388">
<rect width="77" height="77" fill="white" transform="translate(312 124)"/>
</clipPath>
</defs>
</svg>
