<svg width="50" height="50" viewBox="0 0 50 50" fill="none" xmlns="http://www.w3.org/2000/svg">
<path d="M48.2305 5.39913L37.9283 0.438793C36.7359 -0.135364 35.3107 0.106828 34.3748 1.04269L0.649162 31.7926C-0.257973 32.6198 -0.25693 34.0479 0.651412 34.8737L3.40623 37.378C4.14885 38.0532 5.26723 38.1028 6.06678 37.4963L46.6803 6.68596C48.0428 5.65233 49.9998 6.62413 49.9998 8.33436V8.21475C49.9998 7.01427 49.3121 5.91991 48.2305 5.39913Z" fill="#0065A9"/>
<path d="M49.2305 44.6021L38.9283 49.5624C37.7359 50.1364 36.3107 49.8942 35.3748 48.9585L1.64916 18.2085C0.742027 17.3814 0.74307 15.9533 1.65141 15.1275L4.40623 12.6231C5.14885 11.948 6.26723 11.8983 7.06678 12.5049L47.6803 43.3151C49.0428 44.3487 50.9998 43.377 50.9998 41.6667V41.7864C50.9998 42.9868 50.3121 44.0812 49.2305 44.6021Z" fill="#007ACC"/>
<path d="M37.9289 49.5631C36.7361 50.1368 35.3109 49.8944 34.375 48.9584C35.5281 50.1116 37.5 49.2948 37.5 47.6639V2.33609C37.5 0.705224 35.5281 -0.111523 34.375 1.04168C35.3109 0.105731 36.7361 -0.136802 37.9289 0.436847L48.2293 5.39037C49.3117 5.91087 50 7.00562 50 8.20664V41.7936C50 42.9946 49.3117 44.0893 48.2293 44.6098L37.9289 49.5631Z" fill="#1F9CF0"/>
</svg>
