<svg xmlns="http://www.w3.org/2000/svg" fill="none" viewBox="0 0 51 51">
<path d="M51 42.5C51 47.175 47.175 51 42.5 51H8.5C3.825 51 0 47.175 0 42.5V8.5C0 3.825 3.825 0 8.5 0H42.5C47.175 0 51 3.825 51 8.5V42.5Z" fill="#563D7C"/>
<path d="M13.8583 11.0834H28.3167C30.9833 11.0834 33.125 11.6917 34.7333 12.9167C36.3417 14.1417 37.15 15.9834 37.15 18.4584C37.15 19.9584 36.7833 21.2417 36.05 22.3084C35.3167 23.375 34.2667 24.2084 32.9 24.7917V24.875C34.7333 25.2667 36.125 26.1334 37.0667 27.475C38.0083 28.825 38.4833 30.5084 38.4833 32.5417C38.4833 33.7084 38.275 34.8 37.8583 35.8084C37.4417 36.825 36.7917 37.7 35.9 38.4334C35.0083 39.1667 33.875 39.75 32.4833 40.1834C31.0917 40.6167 29.4417 40.8334 27.525 40.8334H13.8583V11.0834ZM19.0667 23.5417H27.5667C28.8167 23.5417 29.8583 23.1917 30.6917 22.475C31.525 21.7584 31.9417 20.7417 31.9417 19.4084C31.9417 17.9084 31.5667 16.85 30.8167 16.2417C30.0667 15.6334 28.9833 15.325 27.5667 15.325H19.0667V23.5417ZM19.0667 36.5834H28.275C29.8583 36.5834 31.0917 36.175 31.9583 35.35C32.8333 34.5334 33.275 33.3667 33.275 31.8667C33.275 30.3917 32.8417 29.2667 31.9583 28.4667C31.075 27.6667 29.8583 27.2834 28.275 27.2834H19.0667V36.5834Z" fill="white"/>
</svg>