<svg width="103" height="43" viewBox="0 0 103 43" fill="none" xmlns="http://www.w3.org/2000/svg">
<path d="M61.7298 14.6361C59.4714 14.6361 57.7896 15.7446 57.7896 18.4122C57.7896 20.4222 58.8981 21.8174 61.6083 21.8174C63.9054 21.8174 65.4656 20.4646 65.4656 18.3292C65.4656 15.9094 64.0694 14.6363 61.7298 14.6363V14.6361ZM57.213 33.4715C56.6786 34.1271 56.1461 34.8236 56.1461 35.6457C56.1461 37.2856 58.2385 37.7792 61.1127 37.7792C63.4937 37.7792 66.737 37.6125 66.737 35.3999C66.737 34.0847 65.1767 34.0033 63.2051 33.8798L57.2128 33.4715H57.213ZM69.3639 14.7602C70.1016 15.7042 70.8827 17.0174 70.8827 18.9048C70.8827 23.459 67.3111 26.1259 62.14 26.1259C60.825 26.1259 59.6344 25.9622 58.8963 25.7574L57.5412 27.9316L61.5637 28.1773C68.666 28.6296 72.8519 28.8351 72.8519 34.2903C72.8519 39.01 68.7068 41.6754 61.5637 41.6754C54.1337 41.6754 51.3014 39.7878 51.3014 36.5468C51.3014 34.6997 52.1226 33.7172 53.5593 32.3611C52.2042 31.7886 51.7533 30.7634 51.7533 29.655C51.7533 28.7518 52.2042 27.9314 52.9443 27.1512C53.6829 26.3724 54.5036 25.5918 55.489 24.6894C53.4778 23.7048 51.9585 21.5712 51.9585 18.5345C51.9585 13.8166 55.0787 10.5764 61.3582 10.5764C63.1237 10.5764 64.1916 10.7388 65.1357 10.9865H73.1411V14.4732L69.3639 14.7605" fill="#413000"/>
<path d="M80.3668 7.30414C78.0264 7.30414 76.6722 5.94893 76.6722 3.60933C76.6722 1.27267 78.0264 -0.000244141 80.3668 -0.000244141C82.7479 -0.000244141 84.1026 1.27267 84.1026 3.60933C84.1026 5.94889 82.7479 7.30414 80.3668 7.30414ZM75.0704 31.9613V28.7216L77.1647 28.4352C77.7397 28.352 77.8213 28.2299 77.8213 27.6129V15.5502C77.8213 15.0998 77.6986 14.8114 77.2869 14.6892L75.0704 13.909L75.5218 10.5867H84.02V27.6132C84.02 28.2709 84.0596 28.3523 84.677 28.4355L86.7708 28.7219V31.9616H75.0701" fill="#413000"/>
<path d="M103.004 30.3712C101.238 31.2318 98.6522 32.0115 96.3112 32.0115C91.4265 32.0115 89.5797 30.0439 89.5797 25.4055V14.6565C89.5797 14.4108 89.5797 14.246 89.25 14.246H86.377V10.5945C89.9905 10.1831 91.4263 8.37736 91.8779 3.90515H95.7782V9.7334C95.7782 10.0196 95.7782 10.1435 96.1069 10.1435H101.895V14.2459H95.7783V24.0517C95.7783 26.4728 96.3537 27.4157 98.5692 27.4157C99.7201 27.4157 100.909 27.1294 101.895 26.7598L103.004 30.3715" fill="#413000"/>
<path d="M42.1796 19.605L23.4086 0.845522C22.3286 -0.234966 20.5754 -0.234966 19.494 0.845522L15.5964 4.74158L20.5404 9.68313C21.6897 9.29526 23.0071 9.55532 23.9229 10.4708C24.8434 11.392 25.1017 12.7199 24.7039 13.8726L29.469 18.6354C30.6218 18.2383 31.9519 18.4948 32.8725 19.4165C34.1594 20.7025 34.1594 22.7863 32.8725 24.0726C31.5853 25.3593 29.5005 25.3593 28.2126 24.0726C27.2449 23.1046 27.0056 21.6835 27.4957 20.4917L23.0517 16.0499L23.0514 27.7385C23.3651 27.8937 23.6612 28.1009 23.9227 28.3611C25.2093 29.647 25.2093 31.7304 23.9227 33.0183C22.6357 34.3041 20.55 34.3041 19.2644 33.0183C17.9776 31.7305 17.9776 29.6471 19.2644 28.3611C19.5824 28.0439 19.9503 27.8037 20.343 27.6427V15.8455C19.9502 15.6853 19.5826 15.4469 19.2641 15.1271C18.2895 14.1536 18.0547 12.7238 18.5546 11.5275L13.6808 6.65533L0.811079 19.5184C-0.270278 20.5997 -0.270278 22.352 0.811079 23.4325L19.581 42.1921C20.6616 43.2726 22.4141 43.2726 23.4963 42.1921L42.1794 23.5212C43.2604 22.4402 43.2604 20.6873 42.1794 19.6066" fill="#F05133"/>
</svg>
