<svg width="73" height="55" viewBox="0 0 73 55" fill="none" xmlns="http://www.w3.org/2000/svg">
<path d="M62.8186 31.6119C60.2733 31.6253 58.0612 32.2415 56.2088 33.1523C55.5292 31.7994 54.8496 30.5939 54.7297 29.7098C54.5964 28.6784 54.4365 28.0488 54.5964 26.8165C54.7563 25.5841 55.4759 23.8294 55.4626 23.6954C55.4493 23.5615 55.3027 22.9319 53.8368 22.9185C52.3709 22.9051 51.105 23.1998 50.9584 23.5883C50.8118 23.9767 50.532 24.8608 50.3454 25.7717C50.0922 27.1112 47.4137 31.8932 45.8812 34.3981C45.3881 33.4202 44.9617 32.5629 44.8684 31.8798C44.7351 30.8484 44.5752 30.2188 44.7351 28.9865C44.895 27.7541 45.6147 25.9994 45.6013 25.8654C45.588 25.7315 45.4414 25.1019 43.9756 25.0885C42.5097 25.0751 41.2437 25.3698 41.0971 25.7583C40.9505 26.1467 40.7906 27.0576 40.4841 27.9417C40.1776 28.8257 36.6196 36.8092 35.6868 38.872C35.207 39.9302 34.7939 40.7741 34.5007 41.3501C34.5007 41.3501 34.4874 41.3903 34.4474 41.4572C34.1942 41.9529 34.0477 42.2208 34.0477 42.2208C34.0477 42.2208 34.0477 42.2208 34.0477 42.2342C33.8478 42.5958 33.6346 42.9307 33.5279 42.9307C33.448 42.9307 33.3014 41.9663 33.5546 40.6535C34.0876 37.8808 35.3536 33.5676 35.3403 33.4202C35.3403 33.3399 35.5802 32.5897 34.5141 32.2013C33.4746 31.8128 33.1015 32.4558 33.0082 32.4558C32.9149 32.4558 32.8483 32.6835 32.8483 32.6835C32.8483 32.6835 34.0077 27.8345 30.6362 27.8345C28.5307 27.8345 25.6256 30.1518 24.1864 32.2415C23.2802 32.7371 21.3479 33.7953 19.2824 34.9339C18.4962 35.3759 17.6833 35.8179 16.9237 36.2332C16.8704 36.1796 16.8171 36.1126 16.7638 36.0591C12.686 31.6789 5.1435 28.5846 5.46332 22.7042C5.58326 20.561 6.31619 14.9351 19.9487 8.10362C31.1692 2.54468 40.0977 4.08511 41.6435 7.50084C43.8556 12.3766 36.8595 21.4317 25.2658 22.7444C20.8416 23.24 18.5228 21.5254 17.9365 20.8825C17.3235 20.2127 17.2302 20.1725 17.0037 20.3065C16.6305 20.5074 16.8704 21.1102 17.0037 21.4585C17.3501 22.3693 18.776 23.9767 21.188 24.767C23.3202 25.4636 28.504 25.852 34.7806 23.4141C41.8034 20.6816 47.2937 13.0866 45.6813 6.72393C44.0688 0.267527 33.408 -1.86228 23.3202 1.74098C17.3235 3.88419 10.8204 7.25973 6.14295 11.6533C0.585994 16.8774 -0.293524 21.4183 0.0662789 23.3204C1.3589 30.0715 10.6205 34.465 14.3251 37.72C14.1386 37.8272 13.9653 37.921 13.8187 38.0013C11.9664 38.9256 4.90363 42.636 3.14459 46.5608C1.14569 51.0079 3.46442 54.1959 4.99691 54.6246C9.7543 55.9507 14.645 53.5664 17.2702 49.6282C19.8954 45.6901 19.5756 40.5732 18.3629 38.229C18.3496 38.2023 18.3363 38.1755 18.3096 38.1487C18.7894 37.8674 19.2824 37.5727 19.7622 37.2914C20.7083 36.7288 21.6411 36.2064 22.4407 35.7778C21.9876 37.0235 21.6544 38.5103 21.4945 40.6535C21.2946 43.1718 22.3208 46.4402 23.6667 47.7261C24.2664 48.2887 24.9726 48.3021 25.4257 48.3021C26.9982 48.3021 27.7045 46.9894 28.4907 45.4356C29.4502 43.5335 30.3164 41.3233 30.3164 41.3233C30.3164 41.3233 29.237 47.2975 32.1687 47.2975C33.2348 47.2975 34.3142 45.9044 34.7939 45.1945C34.7939 45.2079 34.7939 45.2079 34.7939 45.2079C34.7939 45.2079 34.8206 45.1677 34.8739 45.0739C34.9805 44.8998 35.0471 44.7926 35.0471 44.7926C35.0471 44.7926 35.0471 44.7792 35.0471 44.7658C35.4735 44.0157 36.433 42.3145 37.8589 39.4882C39.6979 35.8447 41.4703 31.2904 41.4703 31.2904C41.4703 31.2904 41.6302 32.4022 42.1765 34.2507C42.4964 35.3357 43.1627 36.5279 43.6957 37.6798C43.2693 38.2826 43.0028 38.6175 43.0028 38.6175C43.0028 38.6175 43.0027 38.6175 43.0161 38.6309C42.6696 39.0863 42.2965 39.5819 41.8834 40.0642C40.4308 41.8055 38.6984 43.8014 38.4586 44.3774C38.1787 45.0605 38.2454 45.5561 38.7784 45.958C39.1649 46.2527 39.8578 46.2929 40.5641 46.2527C41.87 46.1589 42.7895 45.8374 43.2426 45.6365C43.9489 45.382 44.7751 44.9935 45.548 44.4175C46.9739 43.3593 47.8401 41.8457 47.7601 39.8498C47.7202 38.7514 47.3604 37.6531 46.9206 36.6216C47.0539 36.4341 47.1738 36.2466 47.3071 36.0591C49.5592 32.7505 51.3049 29.1204 51.3049 29.1204C51.3049 29.1204 51.4648 30.2322 52.0111 32.0807C52.2777 33.0184 52.824 34.0364 53.3038 35.0276C51.1849 36.7556 49.879 38.7648 49.4126 40.0776C48.573 42.5155 49.226 43.6138 50.4653 43.8684C51.025 43.9889 51.8246 43.721 52.4109 43.4665C53.1572 43.2254 54.0367 42.8101 54.8762 42.194C56.3021 41.1358 57.6747 39.6623 57.5948 37.6665C57.5548 36.7556 57.3149 35.8581 56.9818 34.9874C58.7808 34.2373 61.0995 33.8221 64.0579 34.1704C70.4011 34.9205 71.6537 38.8988 71.4139 40.5732C71.174 42.2476 69.8414 43.1584 69.4016 43.4397C68.9619 43.721 68.8153 43.8148 68.8553 44.0157C68.9086 44.3104 69.1218 44.297 69.4949 44.2434C70.0146 44.1496 72.8264 42.8905 72.9464 39.8097C73.1462 35.8715 69.4149 31.5717 62.8186 31.6119ZM13.8854 48.1949C11.7799 50.4989 8.84813 51.3696 7.58216 50.6328C6.22291 49.8425 6.75595 46.4402 9.3412 44.0023C10.9137 42.5155 12.9392 41.1358 14.2852 40.2919C14.5917 40.1043 15.0447 39.8364 15.5911 39.5016C15.6844 39.448 15.7377 39.4212 15.7377 39.4212C15.8443 39.3542 15.9509 39.2873 16.0575 39.2203C17.0037 42.703 16.0975 45.7704 13.8854 48.1949ZM29.2103 37.72C28.4774 39.515 26.9449 44.1095 26.0121 43.855C25.2125 43.6406 24.7194 40.1579 25.8521 36.7154C26.4252 34.9874 27.6378 32.9246 28.3441 32.1209C29.4902 30.835 30.7561 30.4063 31.0626 30.9288C31.4491 31.6119 29.6634 36.5949 29.2103 37.72ZM41.8567 43.8014C41.5502 43.9621 41.257 44.0693 41.1238 43.9889C41.0305 43.9353 41.257 43.721 41.257 43.721C41.257 43.721 42.8428 42.0064 43.4692 41.2295C43.829 40.7741 44.2554 40.2383 44.7085 39.6355C44.7085 39.6891 44.7085 39.7561 44.7085 39.8097C44.7085 41.8591 42.7362 43.2388 41.8567 43.8014ZM51.6114 41.5644C51.3848 41.4037 51.4248 40.8679 52.1844 39.1935C52.4776 38.5371 53.1705 37.4387 54.3565 36.3805C54.4898 36.8092 54.5831 37.2244 54.5697 37.6129C54.5564 40.1981 52.7174 41.1626 51.6114 41.5644Z" fill="#CD6799"/>
</svg>
