<svg width="17" height="16" viewBox="0 0 17 16" fill="none" xmlns="http://www.w3.org/2000/svg">
<path d="M14.4114 8.43812C14.4483 8.2872 14.4103 8.13202 14.272 8.08254L13.6967 7.81588C13.5546 7.75535 13.3736 7.83711 13.3481 7.97589C13.2371 8.21833 13.0796 8.41679 12.8251 8.42035C12.6043 8.42035 12.4242 8.29887 12.2848 8.0559C12.1453 7.81292 12.0756 7.49588 12.0756 7.10476C12.0756 6.71362 12.1453 6.39363 12.2848 6.14471C12.4242 5.89581 12.6043 5.77136 12.8251 5.77136C13.1037 5.792 13.2358 5.97141 13.3481 6.19804C13.4076 6.3469 13.5694 6.38189 13.6967 6.34028L14.272 6.07361C14.4052 6.00209 14.4645 5.82504 14.394 5.70026C14.057 4.9654 13.5341 4.59799 12.8252 4.59799C12.2325 4.59799 11.7531 4.82912 11.3871 5.29134C11.021 5.75359 10.838 6.35805 10.838 7.10474C10.838 7.85145 11.021 8.45293 11.3871 8.90924C11.7531 9.36557 12.2325 9.59372 12.8252 9.59372C13.5341 9.59374 14.0628 9.20853 14.4114 8.43812ZM8.86823 9.59374C9.79223 9.57917 10.4959 8.93163 10.5068 8.08256C10.4905 7.6342 10.3137 7.28547 10.0013 7.01587C10.2764 6.75092 10.4343 6.39009 10.4371 6.03805C10.4142 5.07733 9.63073 4.62344 8.86822 4.61578C8.20583 4.61578 7.69452 4.88246 7.33425 5.4158C7.25291 5.53437 7.26454 5.65288 7.3691 5.77138L7.78745 6.16251C7.92158 6.28443 8.07074 6.2619 8.18838 6.14474C8.36272 5.89584 8.57189 5.77138 8.8159 5.77138C9.01346 5.77138 9.1297 5.82175 9.16455 5.92249C9.23176 6.07196 9.21244 6.20833 9.16455 6.3314C8.98475 6.52126 8.72201 6.46473 8.46731 6.46473C8.30164 6.4704 8.17351 6.56948 8.17098 6.7314V7.37143C8.18544 7.55502 8.30814 7.67634 8.46731 7.6381C8.65945 7.63789 9.14672 7.6157 9.22556 7.78033C9.26624 7.87512 9.28658 7.95219 9.28658 8.01145C9.28658 8.28403 9.14132 8.42035 8.85079 8.42035C8.5719 8.42035 8.33948 8.28997 8.15355 8.02922C8.03982 7.88886 7.86012 7.88682 7.75264 7.99367L7.31685 8.43812C7.21226 8.5448 7.20061 8.65739 7.28199 8.77593C7.67701 9.34271 8.25215 9.58875 8.86823 9.59374ZM7.14253 5.0069C7.17438 4.83648 7.05131 4.67209 6.89849 4.66911H6.1315C5.99203 4.66911 5.9107 4.74021 5.88746 4.88246L5.5214 6.78475L5.13792 4.88245C5.10305 4.74021 5.0159 4.66909 4.87645 4.66909H4.31864C4.16754 4.66909 4.08039 4.7402 4.05718 4.88245L3.67368 6.78474L3.30762 4.88245C3.28438 4.74021 3.19723 4.66909 3.04615 4.66909H2.2966C2.10555 4.68443 2.01373 4.83849 2.03513 5.00688L2.99386 9.30927C3.02873 9.45152 3.11588 9.52261 3.25533 9.52261H3.98745C4.12689 9.52261 4.21406 9.45152 4.24891 9.30927L4.59755 7.53142L4.94617 9.30927C4.9694 9.45152 5.05657 9.52261 5.20764 9.52261H5.93978C6.07924 9.52261 6.16638 9.45152 6.20123 9.30927L7.14253 5.0069ZM16.0151 0.277832V12.188L8.38887 15.834L0.762627 12.188V0.277832H16.0151Z" fill="black"/>
</svg>
