<svg width="22" height="16" viewBox="0 0 22 16" fill="none" xmlns="http://www.w3.org/2000/svg">
<path d="M21.0113 2.62675C20.8909 2.17274 20.6559 1.75884 20.3298 1.42625C20.0037 1.09367 19.5979 0.854005 19.1528 0.731133C17.5231 0.277832 10.9643 0.277832 10.9643 0.277832C10.9643 0.277832 4.40511 0.291553 2.77545 0.744854C2.3303 0.867734 1.92448 1.10741 1.5984 1.44001C1.27232 1.77261 1.03736 2.18653 0.916918 2.64055C0.423984 5.59378 0.232766 10.0938 0.930454 12.9289C1.05091 13.3829 1.28587 13.7968 1.61195 14.1294C1.93803 14.462 2.34385 14.7017 2.78899 14.8245C4.41865 15.2778 10.9776 15.2778 10.9776 15.2778C10.9776 15.2778 17.5366 15.2778 19.1661 14.8245C19.6113 14.7017 20.0171 14.462 20.3432 14.1294C20.6693 13.7968 20.9043 13.3829 21.0248 12.9289C21.5447 9.9715 21.7049 5.47431 21.0113 2.62683V2.62675Z" fill="#FF0000"/>
<path d="M8.8764 10.9921L14.3175 7.77787L8.87649 4.5636L8.8764 10.9921Z" fill="white"/>
</svg>
